<svg width="574" height="484" viewBox="0 0 574 484" fill="none" xmlns="http://www.w3.org/2000/svg">
<mask id="mask0_3503_9393" style="mask-type:alpha" maskUnits="userSpaceOnUse" x="0" y="0" width="574" height="484">
<rect width="574" height="484" fill="white"/>
</mask>
<g mask="url(#mask0_3503_9393)">
<path fill-rule="evenodd" clip-rule="evenodd" d="M1.73167 149.748C1.42993 149.748 1.18532 149.993 1.18532 150.294V159.936C-0.061544 160.189 -1 161.292 -1 162.613V220.202C-1 221.523 -0.061544 222.626 1.18532 222.879V259.542C1.18532 259.844 1.42993 260.089 1.73167 260.089C2.0334 260.089 2.27801 259.844 2.27801 259.542V222.879C3.52497 222.626 4.46351 221.523 4.46351 220.202V162.613C4.46351 161.292 3.52497 160.189 2.27801 159.936V150.294C2.27801 149.993 2.0334 149.748 1.73167 149.748Z" fill="#30DEAB"/>
<path fill-rule="evenodd" clip-rule="evenodd" d="M14.5186 220.682C12.5856 220.682 11.0186 222.249 11.0186 224.182V297.123C11.0186 298.981 12.4675 300.502 14.2975 300.616V314.713C14.2975 315.015 14.5421 315.26 14.8438 315.26C15.1456 315.26 15.3902 315.015 15.3902 314.713V300.616C17.2194 300.501 18.6674 298.981 18.6674 297.123V224.182C18.6674 222.249 17.1004 220.682 15.1674 220.682H14.5186Z" fill="#30DEAB"/>
<path fill-rule="evenodd" clip-rule="evenodd" d="M26.8621 173.392C26.5604 173.392 26.3158 173.637 26.3158 173.939V310.762C24.4862 310.876 23.0378 312.397 23.0378 314.255V324.144C23.0378 326.002 24.4862 327.522 26.3158 327.637V340.609C26.3158 340.911 26.5604 341.155 26.8621 341.155C27.1638 341.155 27.4085 340.911 27.4085 340.609V327.637C29.2381 327.523 30.6867 326.002 30.6867 324.144V314.255C30.6867 312.396 29.2381 310.876 27.4085 310.762V173.939C27.4085 173.637 27.1638 173.392 26.8621 173.392Z" fill="#30DEAB"/>
<path fill-rule="evenodd" clip-rule="evenodd" d="M38.8837 275.852C38.582 275.852 38.3374 276.096 38.3374 276.398V296.126C36.5078 296.24 35.0594 297.76 35.0594 299.619V307.256C35.0594 309.189 36.6264 310.756 38.5594 310.756H39.2083C41.1413 310.756 42.7083 309.189 42.7083 307.256V299.619C42.7083 297.76 41.2597 296.24 39.4301 296.126V276.398C39.4301 276.096 39.1855 275.852 38.8837 275.852Z" fill="#30DEAB"/>
<path fill-rule="evenodd" clip-rule="evenodd" d="M51.9965 265.718C51.6947 265.718 51.4501 265.963 51.4501 266.265V296.125C49.6205 296.24 48.1721 297.76 48.1721 299.619V441.241C48.1721 443.174 49.7391 444.741 51.6721 444.741H52.321C54.254 444.741 55.821 443.174 55.821 441.241V299.619C55.821 297.76 54.3725 296.24 52.5428 296.125V266.265C52.5428 265.963 52.2982 265.718 51.9965 265.718Z" fill="#30DEAB"/>
<path fill-rule="evenodd" clip-rule="evenodd" d="M62.9222 392.948C62.6204 392.948 62.3758 393.192 62.3758 393.494V408.718C60.5463 408.832 59.0978 410.352 59.0978 412.211V440.114C59.0978 442.047 60.6648 443.614 62.5978 443.614H63.2467C65.1797 443.614 66.7467 442.047 66.7467 440.114V412.211C66.7467 410.352 65.2982 408.832 63.4685 408.717V393.494C63.4685 393.192 63.2239 392.948 62.9222 392.948Z" fill="#FF5972"/>
<path fill-rule="evenodd" clip-rule="evenodd" d="M74.922 401.955H72.2427C71.6211 401.955 71.1171 401.451 71.1171 400.83C71.1171 400.208 71.6211 399.704 72.2427 399.704H74.9204C74.9274 399.704 74.9344 399.704 74.9414 399.704C74.9484 399.704 74.9554 399.704 74.9623 399.704H77.6405C78.2621 399.704 78.766 400.208 78.766 400.83C78.766 401.451 78.2621 401.955 77.6405 401.955H74.9608C74.9543 401.955 74.9479 401.955 74.9414 401.955C74.9349 401.955 74.9284 401.955 74.922 401.955Z" fill="#FF5972"/>
<path fill-rule="evenodd" clip-rule="evenodd" d="M88.0533 313.007C87.7516 313.007 87.507 313.251 87.507 313.553V367.631C87.507 367.925 87.7393 368.165 88.0304 368.177H87.0438C85.4892 368.177 84.229 369.437 84.229 370.992C84.229 372.546 85.4892 373.806 87.0438 373.806H89.0631C90.6177 373.806 91.8779 372.546 91.8779 370.992C91.8779 369.437 90.6177 368.177 89.0631 368.177H88.0763C88.3674 368.165 88.5997 367.925 88.5997 367.631V313.553C88.5997 313.251 88.3551 313.007 88.0533 313.007Z" fill="#FF5972"/>
<path fill-rule="evenodd" clip-rule="evenodd" d="M99.7506 372.682C97.8176 372.682 96.2506 374.249 96.2506 376.182V406.338C96.2506 408.271 97.8176 409.838 99.7506 409.838H100.399C102.332 409.838 103.899 408.271 103.899 406.338V376.182C103.899 374.249 102.332 372.682 100.399 372.682H99.7506Z" fill="#30DEAB"/>
<path fill-rule="evenodd" clip-rule="evenodd" d="M113.176 408.711H109.396C108.774 408.711 108.27 408.207 108.27 407.586C108.27 406.964 108.774 406.46 109.396 406.46H113.166C113.173 406.46 113.18 406.46 113.187 406.46C113.195 406.46 113.202 406.46 113.209 406.46H116.978C117.6 406.46 118.104 406.964 118.104 407.586C118.104 408.207 117.6 408.711 116.978 408.711H113.199C113.195 408.712 113.191 408.712 113.187 408.712C113.184 408.712 113.18 408.712 113.176 408.711Z" fill="#FF5972"/>
<path fill-rule="evenodd" clip-rule="evenodd" d="M124.882 373.807C122.949 373.807 121.382 375.374 121.382 377.307V413.093C121.382 414.951 122.831 416.472 124.661 416.586V467.839C124.661 468.141 124.905 468.385 125.207 468.385C125.509 468.385 125.753 468.141 125.753 467.839V416.586C127.583 416.471 129.031 414.951 129.031 413.093V377.307C129.031 375.374 127.464 373.807 125.531 373.807H124.882Z" fill="#FF5972"/>
<path fill-rule="evenodd" clip-rule="evenodd" d="M137.225 328.771C136.924 328.771 136.679 329.016 136.679 329.317V364.808C134.849 364.922 133.401 366.442 133.401 368.301V388.323C133.401 390.181 134.849 391.701 136.679 391.816V483.602C136.679 483.904 136.924 484.149 137.225 484.149C137.527 484.149 137.772 483.904 137.772 483.602V391.816C139.601 391.702 141.05 390.181 141.05 388.323V368.301C141.05 366.442 139.601 364.922 137.772 364.808V329.317C137.772 329.016 137.527 328.771 137.225 328.771Z" fill="#30DEAB"/>
<path fill-rule="evenodd" clip-rule="evenodd" d="M149.245 292.741C148.943 292.741 148.698 292.986 148.698 293.288V320.896C146.869 321.011 145.42 322.531 145.42 324.389V389.449C145.42 391.307 146.869 392.827 148.698 392.942V427.306C148.698 427.608 148.943 427.852 149.245 427.852C149.546 427.852 149.791 427.608 149.791 427.306V392.942C151.621 392.827 153.069 391.307 153.069 389.449V324.389C153.069 322.531 151.621 321.011 149.791 320.896V293.288C149.791 292.986 149.546 292.741 149.245 292.741Z" fill="#FF5972"/>
<path fill-rule="evenodd" clip-rule="evenodd" d="M160.942 313.007C159.009 313.007 157.442 314.574 157.442 316.507V327.522C157.442 329.455 159.009 331.022 160.942 331.022H162.347C162.351 331.022 162.355 331.022 162.359 331.022C162.363 331.022 162.367 331.022 162.371 331.022H163.776C165.709 331.022 167.276 329.455 167.276 327.522V316.507C167.276 314.574 165.709 313.007 163.776 313.007H160.942Z" fill="#FF5972"/>
<path fill-rule="evenodd" clip-rule="evenodd" d="M174.379 249.955C174.077 249.955 173.832 250.2 173.832 250.502V263.473C172.003 263.588 170.554 265.108 170.554 266.966V286.988C170.554 288.847 172.003 290.367 173.832 290.481V329.35C173.832 329.651 174.077 329.896 174.379 329.896C174.68 329.896 174.925 329.651 174.925 329.35V290.481C176.755 290.367 178.203 288.847 178.203 286.988V266.966C178.203 265.108 176.755 263.587 174.925 263.473V250.502C174.925 250.2 174.68 249.955 174.379 249.955Z" fill="#FF5972"/>
<path fill-rule="evenodd" clip-rule="evenodd" d="M186.397 239.822C186.096 239.822 185.851 240.067 185.851 240.369V253.34C184.021 253.455 182.573 254.975 182.573 256.833V276.855C182.573 278.714 184.021 280.234 185.851 280.348V403.661C185.851 403.963 186.096 404.207 186.397 404.207C186.699 404.207 186.944 403.963 186.944 403.661V280.348C188.773 280.234 190.222 278.714 190.222 276.855V256.833C190.222 254.975 188.773 253.454 186.944 253.34V240.369C186.944 240.067 186.699 239.822 186.397 239.822Z" fill="#FF5972"/>
<path fill-rule="evenodd" clip-rule="evenodd" d="M199.51 192.533C199.208 192.533 198.964 192.778 198.964 193.08V206.051C197.134 206.165 195.686 207.686 195.686 209.544V248.707C195.686 250.64 197.253 252.207 199.186 252.207H199.835C201.768 252.207 203.335 250.64 203.335 248.707V209.544C203.335 207.686 201.886 206.165 200.056 206.051V193.08C200.056 192.778 199.812 192.533 199.51 192.533Z" fill="#FF5972"/>
<path fill-rule="evenodd" clip-rule="evenodd" d="M211.529 24.7712C211.227 24.7712 210.983 25.0159 210.983 25.3176V29.2822C209.153 29.3967 207.705 30.9168 207.705 32.7752V154.131C207.705 155.989 209.153 157.509 210.983 157.624V173.973C210.983 174.275 211.227 174.519 211.529 174.519C211.831 174.519 212.075 174.275 212.075 173.973V157.624C213.905 157.509 215.353 155.989 215.353 154.131V32.7752C215.353 30.9168 213.905 29.3966 212.075 29.2822V25.3176C212.075 25.0159 211.831 24.7712 211.529 24.7712Z" fill="#FF5972"/>
<path fill-rule="evenodd" clip-rule="evenodd" d="M223.551 0C223.249 0 223.004 0.244611 223.004 0.54635V34.9112C221.175 35.0257 219.726 36.5458 219.726 38.4042V39.2857C219.726 41.1442 221.175 42.6643 223.004 42.7788V47.8685C223.004 48.1702 223.249 48.4148 223.551 48.4148C223.852 48.4148 224.097 48.1702 224.097 47.8685V42.7788C225.927 42.6644 227.375 41.1442 227.375 39.2857V38.4042C227.375 36.5457 225.927 35.0256 224.097 34.9112V0.546348C224.097 0.244608 223.852 0 223.551 0Z" fill="#30DEAB"/>
<path fill-rule="evenodd" clip-rule="evenodd" d="M235.569 48.415C235.268 48.415 235.023 48.6596 235.023 48.9614V60.8074C233.193 60.9219 231.745 62.442 231.745 64.3005V106.841C231.745 108.7 233.193 110.22 235.023 110.334V202.121C235.023 202.422 235.268 202.667 235.569 202.667C235.871 202.667 236.116 202.422 236.116 202.121V110.334C237.945 110.22 239.394 108.7 239.394 106.841V64.3005C239.394 62.4419 237.945 60.9218 236.116 60.8074V48.9614C236.116 48.6596 235.871 48.415 235.569 48.415Z" fill="#30DEAB"/>
<path fill-rule="evenodd" clip-rule="evenodd" d="M247.264 111.466C245.331 111.466 243.764 113.033 243.764 114.966V119.226C243.764 121.159 245.331 122.726 247.264 122.726H247.913C249.846 122.726 251.413 121.159 251.413 119.226V114.966C251.413 113.033 249.846 111.466 247.913 111.466H247.264Z" fill="#30DEAB"/>
<path fill-rule="evenodd" clip-rule="evenodd" d="M260.376 127.229C258.443 127.229 256.876 128.796 256.876 130.729V203.67C256.876 205.528 258.324 207.048 260.153 207.163V278.683C260.153 278.985 260.398 279.229 260.7 279.229C261.001 279.229 261.246 278.985 261.246 278.683V207.163C263.076 207.049 264.525 205.529 264.525 203.67V130.729C264.525 128.796 262.958 127.229 261.025 127.229H260.376Z" fill="#30DEAB"/>
<path fill-rule="evenodd" clip-rule="evenodd" d="M273.812 199.289C273.511 199.289 273.266 199.533 273.266 199.835V209.423C271.447 209.476 269.988 210.968 269.988 212.8C269.988 214.632 271.447 216.123 273.266 216.176V246.031C273.266 246.333 273.511 246.577 273.812 246.577C274.114 246.577 274.359 246.333 274.359 246.031V216.176C276.178 216.123 277.637 214.632 277.637 212.8C277.637 210.968 276.178 209.476 274.359 209.423V199.835C274.359 199.533 274.114 199.289 273.812 199.289Z" fill="#FF5972"/>
<path fill-rule="evenodd" clip-rule="evenodd" d="M285.51 219.555C283.577 219.555 282.01 221.122 282.01 223.055V259.967C282.01 261.825 283.458 263.345 285.287 263.46V277.557C285.287 277.859 285.532 278.103 285.834 278.103C286.136 278.103 286.38 277.859 286.38 277.557V263.46C288.21 263.345 289.659 261.825 289.659 259.967V223.055C289.659 221.122 288.092 219.555 286.159 219.555H285.51Z" fill="#30DEAB"/>
<path fill-rule="evenodd" clip-rule="evenodd" d="M297.854 48.415C297.552 48.415 297.308 48.6596 297.308 48.9614V246.585C295.478 246.7 294.03 248.22 294.03 250.078V256.589C294.03 258.448 295.478 259.968 297.308 260.082V274.18C297.308 274.482 297.552 274.726 297.854 274.726C298.156 274.726 298.401 274.482 298.401 274.18V260.082C300.23 259.968 301.679 258.448 301.679 256.589V250.078C301.679 248.22 300.23 246.699 298.401 246.585V48.9614C298.401 48.6596 298.156 48.415 297.854 48.415Z" fill="#30DEAB"/>
<path fill-rule="evenodd" clip-rule="evenodd" d="M309.325 313C307.496 312.886 306.048 311.366 306.048 309.507V264.715C306.048 262.782 307.615 261.215 309.548 261.215H309.85C309.857 261.215 309.864 261.214 309.872 261.214C309.879 261.214 309.887 261.215 309.894 261.215H310.197C312.13 261.215 313.697 262.782 313.697 264.715V309.507C313.697 311.366 312.248 312.886 310.418 313.001V334.979C310.418 335.281 310.173 335.525 309.872 335.525C309.57 335.525 309.325 335.281 309.325 334.979V313Z" fill="#30DEAB"/>
<path fill-rule="evenodd" clip-rule="evenodd" d="M322.966 313.008H319.193C318.571 313.008 318.067 312.504 318.067 311.882C318.067 311.26 318.571 310.756 319.193 310.756H322.97C322.975 310.756 322.98 310.756 322.986 310.756C322.991 310.756 322.996 310.756 323.001 310.756H326.776C327.398 310.756 327.902 311.26 327.902 311.882C327.902 312.504 327.398 313.008 326.776 313.008H323.005C322.998 313.008 322.992 313.008 322.986 313.008C322.979 313.008 322.973 313.008 322.966 313.008Z" fill="#FF5972"/>
<path fill-rule="evenodd" clip-rule="evenodd" d="M334.682 328.771C332.749 328.771 331.182 330.338 331.182 332.271V342.16C331.182 344.018 332.63 345.538 334.46 345.653V355.247C334.46 355.549 334.704 355.794 335.006 355.794C335.308 355.794 335.552 355.549 335.552 355.247V345.653C337.382 345.539 338.831 344.018 338.831 342.16V332.271C338.831 330.338 337.264 328.771 335.331 328.771H334.682Z" fill="#30DEAB"/>
<path fill-rule="evenodd" clip-rule="evenodd" d="M343.233 344.534C342.612 344.534 342.108 345.038 342.108 345.66C342.108 346.281 342.612 346.785 343.233 346.785H347.002C347.01 346.786 347.017 346.786 347.025 346.786C347.033 346.786 347.04 346.786 347.048 346.785H350.816C351.438 346.785 351.942 346.281 351.942 345.66C351.942 345.038 351.438 344.534 350.816 344.534H347.025H343.233Z" fill="#FF5972"/>
<path fill-rule="evenodd" clip-rule="evenodd" d="M359.027 359.17H355.253C354.631 359.17 354.127 358.666 354.127 358.044C354.127 357.422 354.631 356.918 355.253 356.918H359.03C359.035 356.918 359.04 356.918 359.045 356.918C359.05 356.918 359.056 356.918 359.061 356.918H362.836C363.458 356.918 363.962 357.422 363.962 358.044C363.962 358.666 363.458 359.17 362.836 359.17H359.063C359.057 359.17 359.051 359.17 359.045 359.17C359.039 359.17 359.033 359.17 359.027 359.17Z" fill="#FF5972"/>
<path fill-rule="evenodd" clip-rule="evenodd" d="M372.138 359.169H368.365C367.743 359.169 367.239 358.665 367.239 358.044C367.239 357.422 367.743 356.918 368.365 356.918H372.14C372.145 356.918 372.151 356.918 372.156 356.918C372.161 356.918 372.166 356.918 372.171 356.918H375.948C376.57 356.918 377.074 357.422 377.074 358.044C377.074 358.665 376.57 359.169 375.948 359.169H372.174C372.168 359.169 372.162 359.169 372.156 359.169C372.15 359.169 372.144 359.169 372.138 359.169Z" fill="#FF5972"/>
<path fill-rule="evenodd" clip-rule="evenodd" d="M383.851 333.274C381.918 333.274 380.351 334.841 380.351 336.774V344.411C380.351 346.344 381.918 347.911 383.851 347.911H384.5C386.433 347.911 388 346.344 388 344.411V336.774C388 334.841 386.433 333.274 384.5 333.274H383.851Z" fill="#FF5972"/>
<path fill-rule="evenodd" clip-rule="evenodd" d="M408.985 288.237C407.052 288.237 405.485 289.804 405.485 291.737V330.9C405.485 332.833 407.052 334.4 408.985 334.4H409.634C411.567 334.4 413.134 332.833 413.134 330.9V291.737C413.134 289.804 411.567 288.237 409.634 288.237H408.985Z" fill="#FF5972"/>
<path fill-rule="evenodd" clip-rule="evenodd" d="M421.328 243.2C421.027 243.2 420.782 243.444 420.782 243.746V256.717C418.952 256.832 417.504 258.352 417.504 260.211V299.374C417.504 301.307 419.071 302.874 421.004 302.874H421.653C423.586 302.874 425.153 301.307 425.153 299.374V260.211C425.153 258.352 423.704 256.832 421.875 256.717V243.746C421.875 243.444 421.63 243.2 421.328 243.2Z" fill="#FF5972"/>
<path fill-rule="evenodd" clip-rule="evenodd" d="M433.348 247.704C433.046 247.704 432.801 247.948 432.801 248.25V266.851C430.972 266.965 429.523 268.485 429.523 270.344V316.262C429.523 318.121 430.972 319.641 432.801 319.755V354.12C432.801 354.422 433.046 354.667 433.348 354.667C433.649 354.667 433.894 354.422 433.894 354.12V319.755C435.724 319.641 437.172 318.121 437.172 316.262V270.344C437.172 268.485 435.724 266.965 433.894 266.851V248.25C433.894 247.948 433.649 247.704 433.348 247.704Z" fill="#30DEAB"/>
<path fill-rule="evenodd" clip-rule="evenodd" d="M446.135 173.392C444.202 173.392 442.635 174.959 442.635 176.892V299.374C442.635 301.307 444.202 302.874 446.135 302.874H446.784C448.717 302.874 450.284 301.307 450.284 299.374V176.892C450.284 174.959 448.717 173.392 446.784 173.392H446.135Z" fill="#FF5972"/>
<path fill-rule="evenodd" clip-rule="evenodd" d="M458.157 137.363C456.224 137.363 454.657 138.93 454.657 140.863V301.626C454.657 303.484 456.105 305.004 457.935 305.119V307.957C457.935 308.259 458.18 308.504 458.482 308.504C458.783 308.504 459.028 308.259 459.028 307.957V305.119C460.857 305.004 462.306 303.484 462.306 301.626V140.863C462.306 138.93 460.739 137.363 458.806 137.363H458.157Z" fill="#30DEAB"/>
<path fill-rule="evenodd" clip-rule="evenodd" d="M470.5 175.644C470.199 175.644 469.954 175.889 469.954 176.191V184.658C468.124 184.773 466.676 186.293 466.676 188.151V291.492C466.676 293.425 468.243 294.992 470.176 294.992H470.825C472.758 294.992 474.325 293.425 474.325 291.492V188.151C474.325 186.293 472.876 184.773 471.047 184.658V176.191C471.047 175.889 470.802 175.644 470.5 175.644Z" fill="#FF5972"/>
<path fill-rule="evenodd" clip-rule="evenodd" d="M482.52 152C482.218 152 481.973 152.245 481.973 152.546V168.896C480.144 169.011 478.695 170.531 478.695 172.389V213.804C478.695 215.737 480.262 217.304 482.195 217.304H482.844C484.777 217.304 486.344 215.737 486.344 213.804V172.389C486.344 170.531 484.896 169.011 483.066 168.896V152.546C483.066 152.245 482.821 152 482.52 152Z" fill="#30DEAB"/>
<path fill-rule="evenodd" clip-rule="evenodd" d="M495.618 217.302H491.84C491.218 217.302 490.714 216.799 490.714 216.177C490.714 215.555 491.218 215.052 491.84 215.052H495.611C495.618 215.051 495.625 215.051 495.631 215.051C495.638 215.051 495.645 215.051 495.652 215.052H499.423C500.045 215.052 500.549 215.555 500.549 216.177C500.549 216.799 500.045 217.302 499.423 217.302H495.645C495.64 217.303 495.636 217.303 495.631 217.303C495.627 217.303 495.622 217.303 495.618 217.302Z" fill="#FF5972"/>
<path fill-rule="evenodd" clip-rule="evenodd" d="M507.326 224.059C505.393 224.059 503.826 225.626 503.826 227.559V235.196C503.826 237.129 505.393 238.696 507.326 238.696H507.975C509.908 238.696 511.475 237.129 511.475 235.196V227.559C511.475 225.626 509.908 224.059 507.975 224.059H507.326Z" fill="#30DEAB"/>
<path fill-rule="evenodd" clip-rule="evenodd" d="M519.348 217.303C517.415 217.303 515.848 218.87 515.848 220.803V254.337C515.848 256.27 517.415 257.837 519.348 257.837H519.997C521.93 257.837 523.497 256.27 523.497 254.337V220.803C523.497 218.87 521.93 217.303 519.997 217.303H519.348Z" fill="#FF5972"/>
<path fill-rule="evenodd" clip-rule="evenodd" d="M532.46 220.682C530.527 220.682 528.96 222.249 528.96 224.182V231.819C528.96 233.752 530.527 235.319 532.46 235.319H533.109C535.042 235.319 536.609 233.752 536.609 231.819V224.182C536.609 222.249 535.042 220.682 533.109 220.682H532.46Z" fill="#30DEAB"/>
<path fill-rule="evenodd" clip-rule="evenodd" d="M556.5 235C556.224 235 556 235.224 556 235.5V238.732C554.303 238.974 552.998 240.433 552.998 242.197V249.834C552.998 251.598 554.303 253.057 556 253.299V257.5C556 257.776 556.224 258 556.5 258C556.776 258 557 257.776 557 257.5V253.298C558.695 253.055 559.998 251.597 559.998 249.834V242.197C559.998 240.434 558.695 238.976 557 238.732V235.5C557 235.224 556.776 235 556.5 235Z" fill="#30DEAB"/>
<path fill-rule="evenodd" clip-rule="evenodd" d="M542.105 231.941C541.483 231.941 540.979 232.445 540.979 233.067C540.979 233.688 541.483 234.192 542.105 234.192H545.865C545.875 234.193 545.886 234.193 545.897 234.193C545.908 234.193 545.918 234.193 545.929 234.192H549.688C550.309 234.192 550.813 233.688 550.813 233.067C550.813 232.445 550.309 231.941 549.688 231.941H542.105Z" fill="#30DEAB"/>
<path fill-rule="evenodd" clip-rule="evenodd" d="M565.05 264.593C564.429 264.593 563.925 265.097 563.925 265.719C563.925 266.34 564.429 266.844 565.05 266.844H568.811C568.821 266.845 568.831 266.845 568.841 266.845C568.851 266.845 568.861 266.845 568.871 266.844H572.634C573.255 266.844 573.759 266.34 573.759 265.719C573.759 265.097 573.255 264.593 572.634 264.593H565.05Z" fill="#30DEAB"/>
<g filter="url(#filter0_f_3503_9393)">
<circle cx="-40" cy="316" r="481" fill="#121922"/>
</g>
</g>
<defs>
<filter id="filter0_f_3503_9393" x="-921" y="-565" width="1762" height="1762" filterUnits="userSpaceOnUse" color-interpolation-filters="sRGB">
<feFlood flood-opacity="0" result="BackgroundImageFix"/>
<feBlend mode="normal" in="SourceGraphic" in2="BackgroundImageFix" result="shape"/>
<feGaussianBlur stdDeviation="200" result="effect1_foregroundBlur_3503_9393"/>
</filter>
</defs>
</svg>
